<?xml version="1.0" encoding="utf-8"?>
<!-- Generator: Adobe Illustrator 24.0.1, SVG Export Plug-In . SVG Version: 6.00 Build 0)  -->
<svg version="1.1" id="Слой_1" xmlns="http://www.w3.org/2000/svg" xmlns:xlink="http://www.w3.org/1999/xlink" x="0px" y="0px"
	 viewBox="0 0 120 40" style="enable-background:new 0 0 120 40;" xml:space="preserve">
<style type="text/css">
	.st0{fill:#D6E5FC;}
	.st1{opacity:0.25;fill:#4F68B7;}
	.st2{fill:#FFFFFF;}
	.st3{fill:#CDD5EC;}
	.st4{fill:#E8CFDD;}
	.st5{opacity:0.25;}
	.st6{fill:#4F68B7;}
	.st7{fill:#E84480;}
	.st8{fill:#3F53A0;}
	.st9{fill:#D8D8D8;}
	.st10{opacity:0.75;fill:#4F68B7;}
	.st11{fill:#F97DB0;}
	.st12{fill:#F995C2;}
	.st13{opacity:0.4;fill:#FFFFFF;}
	.st14{fill:#E2947F;}
	.st15{fill:#60E8A6;}
	.st16{fill:#2DCE89;}
	.st17{fill:#9B9B9B;}
	.st18{fill:#C6C6C6;}
	.st19{fill:#DDDDDD;}
	.st20{fill:#EDA696;}
	.st21{fill:#F9BAB7;}
	.st22{fill:#E08879;}
	.st23{fill:#FCC1BE;}
	.st24{fill:#F9B3AC;}
	.st25{opacity:0.67;fill:#4F68B7;}
	.st26{opacity:0.26;fill:#4F68B7;}
	.st27{opacity:0.37;fill:#4F68B7;}
	.st28{opacity:0.34;}
	.st29{opacity:0.34;fill:#FFFFFF;}
	.st30{opacity:0.44;}
	.st31{opacity:0.47;fill:#4F68B7;}
	.st32{opacity:0.61;fill:#FFFFFF;}
	.st33{opacity:0.33;fill:#FFFFFF;}
	.st34{display:none;}
	.st35{display:inline;fill:#FFFFFF;}
	.st36{display:inline;fill:#E84480;}
	.st37{display:inline;fill:#3F53A0;}
	.st38{opacity:0.29;fill:#E84480;}
</style>
<path class="st7" d="M48.12,15.38v-0.02h6.59c0.8,0,1.45-0.65,1.45-1.45v-1.75c0-0.81-0.36-1.29-1.09-1.43l-4.6-0.92
	c-1.57-0.31-2.35-1.37-2.35-3.17V5.49c0-1.81,1.47-3.27,3.27-3.27h4.84c0.22,0,0.44,0.07,0.61,0.21v0c0.44,0.34,0.69,0.86,0.69,1.42
	v0h-6.16c-0.8,0-1.46,0.65-1.46,1.46v1.45c0,0.81,0.36,1.29,1.09,1.43l4.6,0.92c1.57,0.31,2.35,1.37,2.35,3.17v1.43
	c0,1.81-1.47,3.27-3.27,3.27h-5.24c-0.24,0-0.47-0.08-0.66-0.23l0,0C48.37,16.43,48.12,15.92,48.12,15.38z"/>
<path class="st7" d="M60.96,13.71V5.49c0-2.18,1.09-3.27,3.27-3.27h5.01c2.18,0,3.27,1.09,3.27,3.27v8.22
	c0,2.18-1.09,3.27-3.27,3.27h-5.01C62.05,16.98,60.96,15.89,60.96,13.71z M62.76,13.9c0,0.97,0.49,1.45,1.46,1.45h5.05
	c0.97,0,1.46-0.48,1.46-1.45V5.3c0-0.97-0.49-1.45-1.46-1.45h-5.05c-0.97,0-1.46,0.49-1.46,1.45V13.9z"/>
<path class="st7" d="M76.02,13.25V2.68c0-0.25,0.21-0.46,0.46-0.46h0.88c0.25,0,0.46,0.21,0.46,0.46v10.77
	c0,1.06,0.86,1.91,1.91,1.91h3.7c1.06,0,1.91-0.86,1.91-1.91V2.68c0-0.25,0.21-0.46,0.46-0.46h0.88c0.25,0,0.46,0.21,0.46,0.46
	v10.57c0,2.06-1.67,3.73-3.73,3.73h-3.66C77.69,16.98,76.02,15.31,76.02,13.25z"/>
<path class="st7" d="M90.87,16.55V2.65c0-0.24,0.19-0.43,0.43-0.43h1.33c0.15,0,0.28,0.07,0.36,0.2l7.64,11.79V2.65
	c0-0.24,0.19-0.43,0.43-0.43h0.94c0.24,0,0.43,0.19,0.43,0.43v13.9c0,0.24-0.19,0.43-0.43,0.43h-1.33c-0.15,0-0.28-0.07-0.36-0.2
	L92.67,5v11.55c0,0.24-0.19,0.43-0.43,0.43H91.3C91.06,16.98,90.87,16.79,90.87,16.55z"/>
<path class="st7" d="M106.27,16.46V2.74c0-0.29,0.23-0.52,0.52-0.52h4.73c3.24,0,5.87,2.63,5.87,5.87v3.02
	c0,3.24-2.63,5.87-5.87,5.87h-4.73C106.51,16.98,106.27,16.75,106.27,16.46z M108.59,15.36h3.04c2.19,0,3.97-1.78,3.97-3.97V7.81
	c0-2.19-1.78-3.97-3.97-3.97h-3.04c-0.29,0-0.52,0.23-0.52,0.52v10.47C108.07,15.12,108.31,15.36,108.59,15.36z"/>
<path class="st8" d="M47.61,37.1v-1.97h7.83c0.51,0,0.76-0.25,0.76-0.76v-1.84c0-0.47-0.21-0.75-0.63-0.83l-4.93-0.99
	c-2.02-0.4-3.03-1.76-3.03-4.07v-1.41c0-2.83,1.41-4.24,4.24-4.24h5.78l1.69,1.31v1.97H52c-0.51,0-0.76,0.25-0.76,0.76v1.64
	c0,0.47,0.21,0.75,0.63,0.83l4.93,0.99c2.02,0.4,3.03,1.76,3.03,4.07v1.62c0,2.83-1.41,4.24-4.24,4.24H49.3L47.61,37.1z"/>
<path class="st8" d="M63.22,38.41V22.29l1.44-1.31h7.05c2.83,0,4.24,1.41,4.24,4.24v3.38c0,2.83-1.41,4.24-4.24,4.24h-4.85v5.56
	H63.22z M67.57,29.57h3.98c0.42,0,0.76-0.34,0.76-0.76v-3.79c0-0.42-0.34-0.76-0.76-0.76h-3.99c-0.39,0-0.71,0.32-0.71,0.71v3.88
	C66.85,29.25,67.18,29.57,67.57,29.57z"/>
<path class="st8" d="M79.33,38.41V20.98h3.64v17.43H79.33z"/>
<path class="st8" d="M87.11,38.41V22.26l1.32-1.27h7.17c2.83,0,4.24,1.41,4.24,4.24v2.88c0,2.11-0.78,3.43-2.35,3.97l2.9,6.34h-3.61
	l-3.08-6.06h-2.96v6.06H87.11z M91.47,29.07h3.98c0.42,0,0.76-0.34,0.76-0.76v-3.28c0-0.42-0.34-0.76-0.76-0.76h-4
	c-0.38,0-0.69,0.31-0.69,0.69v3.39C90.75,28.75,91.07,29.07,91.47,29.07z"/>
<path class="st8" d="M103.23,34.17v-8.94c0-2.83,1.41-4.24,4.24-4.24h5.76c2.83,0,4.24,1.41,4.24,4.24v8.94
	c0,2.83-1.41,4.24-4.24,4.24h-5.76C104.64,38.41,103.23,37,103.23,34.17z M106.87,34.37c0,0.51,0.25,0.76,0.76,0.76h5.46
	c0.51,0,0.76-0.25,0.76-0.76v-9.35c0-0.51-0.25-0.76-0.76-0.76h-5.46c-0.51,0-0.76,0.25-0.76,0.76V34.37z"/>
<path class="st7" d="M37.59,18.93L27.36,8.36c-0.16-0.17-0.25-0.39-0.25-0.61l0-2.91c0-0.01,0-0.02,0.02-0.04
	c0.02-0.02,0.03-0.02,0.04-0.02h4.91c0.66,0,1.2-0.54,1.2-1.2s-0.54-1.2-1.2-1.2h-4.91c-0.66,0-1.28,0.26-1.74,0.73
	c-0.46,0.47-0.72,1.09-0.71,1.74l0,2.91c0.01,0.84,0.33,1.64,0.9,2.25l10.25,10.59c0.68,0.71,1.06,1.64,1.06,2.62v10.17
	c0,1.5-1.22,2.72-2.72,2.72h-6.8c-1.5,0-2.72-1.22-2.72-2.72v-7.36c0-0.66-0.54-1.2-1.2-1.2c-0.66,0-1.2,0.54-1.2,1.2v7.36
	c0,2.82,2.29,5.11,5.11,5.11h6.8c2.82,0,5.11-2.29,5.11-5.11V23.21C39.32,21.61,38.71,20.09,37.59,18.93z"/>
<path class="st7" d="M18.2,24.83c-0.66,0-1.2,0.54-1.2,1.2v7.36c0,1.5-1.22,2.72-2.72,2.72h-6.8c-1.5,0-2.72-1.22-2.72-2.72V23.21
	c0-0.98,0.38-1.91,1.06-2.62l10.24-10.58L16.07,10c0.57-0.61,0.89-1.41,0.9-2.26l0-2.89c0.01-0.66-0.25-1.28-0.71-1.75
	c-0.46-0.47-1.08-0.73-1.74-0.73H9.61c-0.66,0-1.2,0.54-1.2,1.2s0.54,1.2,1.2,1.2h4.91c0.01,0,0.02,0,0.04,0.02
	c0.02,0.02,0.02,0.03,0.02,0.05l0,2.89c0,0.23-0.09,0.46-0.25,0.63L4.09,18.93c-1.11,1.16-1.73,2.68-1.73,4.28v10.17
	c0,2.82,2.29,5.11,5.11,5.11h6.8c2.82,0,5.11-2.29,5.11-5.11v-7.36C19.4,25.36,18.86,24.83,18.2,24.83z"/>
<path class="st8" d="M32.12,23.39L22.06,12.95V3.41c0-0.66-0.53-1.19-1.19-1.19c-0.01,0-0.01,0-0.02,0c-0.01,0-0.01,0-0.02,0
	c-0.66,0-1.19,0.53-1.19,1.19v9.54L9.58,23.39c-0.45,0.47-0.44,1.22,0.03,1.68c0.23,0.22,0.53,0.33,0.82,0.33
	c0.31,0,0.62-0.12,0.85-0.36l9.56-9.92l9.56,9.92c0.23,0.24,0.54,0.36,0.85,0.36c0.3,0,0.59-0.11,0.82-0.33
	C32.56,24.62,32.58,23.86,32.12,23.39z"/>
</svg>
