<?xml version="1.0" encoding="utf-8"?>
<!-- Generator: Adobe Illustrator 24.0.1, SVG Export Plug-In . SVG Version: 6.00 Build 0)  -->
<svg version="1.1" id="Слой_1" xmlns="http://www.w3.org/2000/svg" xmlns:xlink="http://www.w3.org/1999/xlink" x="0px" y="0px"
	 viewBox="0 0 429 370" style="enable-background:new 0 0 429 370;" xml:space="preserve">
<style type="text/css">
	.st0{fill:#D6E5FC;}
	.st1{opacity:0.25;fill:#4F68B7;}
	.st2{fill:#FFFFFF;}
	.st3{fill:#CDD5EC;}
	.st4{fill:#E8CFDD;}
	.st5{opacity:0.25;}
	.st6{fill:#4F68B7;}
	.st7{fill:#E84480;}
	.st8{fill:#3F53A0;}
	.st9{fill:#D8D8D8;}
	.st10{opacity:0.75;fill:#4F68B7;}
	.st11{fill:#F97DB0;}
	.st12{fill:#F995C2;}
	.st13{opacity:0.4;fill:#FFFFFF;}
	.st14{fill:#E2947F;}
	.st15{fill:#60E8A6;}
	.st16{fill:#2DCE89;}
	.st17{fill:#9B9B9B;}
	.st18{fill:#C6C6C6;}
	.st19{fill:#DDDDDD;}
	.st20{fill:#EDA696;}
	.st21{fill:#F9BAB7;}
	.st22{fill:#E08879;}
	.st23{fill:#FCC1BE;}
	.st24{fill:#F9B3AC;}
	.st25{opacity:0.67;fill:#4F68B7;}
	.st26{opacity:0.26;fill:#4F68B7;}
	.st27{opacity:0.37;fill:#4F68B7;}
	.st28{opacity:0.34;}
	.st29{opacity:0.34;fill:#FFFFFF;}
	.st30{opacity:0.44;}
	.st31{opacity:0.47;fill:#4F68B7;}
	.st32{opacity:0.61;fill:#FFFFFF;}
	.st33{opacity:0.33;fill:#FFFFFF;}
	.st34{display:none;}
	.st35{display:inline;fill:#FFFFFF;}
	.st36{display:inline;fill:#E84480;}
	.st37{display:inline;fill:#3F53A0;}
	.st38{opacity:0.29;fill:#E84480;}
</style>
<g class="st5">
	<path class="st6" d="M59.45,316.42c-16.91-6.27-29.3-21.61-35.6-38.51c-6.3-16.9-7.19-35.31-6.69-53.34
		c1.26-45.07,11.3-90.85,35.89-128.64c5.52-8.49,11.83-16.61,19.77-22.89c9.24-7.32,20.41-11.92,31.89-14.58
		c15.77-3.65,32.36-3.75,48.18-0.29c14.66,3.21,28.78,9.45,43.78,10.13c28.14,1.29,53.44-16.92,81.24-21.42
		c26-4.21,52.32,3.8,77.01,12.98c18.15,6.75,36.6,14.55,50.08,28.45c22.55,23.25,26.12,62.57,8.11,89.49
		c-8.63,12.9-21.63,23.35-26.06,38.23c-4.18,14.03,0.17,29.24-2.18,43.69c-2.57,15.75-13.01,29.33-25.68,39.03
		c-12.67,9.69-27.54,16.02-42.22,22.25c-10.34,4.38-21.14,8.85-32.36,8.26c-7.76-0.41-15.17-3.24-22.43-6.02
		c-21.32-8.17-43.52-16.39-66.29-14.78c-16.13,1.14-31.5,7.18-46.16,14.03c-12.38,5.78-24.73,12.28-38.25,14.24
		c-20.3,2.94-41.88-5.51-54.79-21.45"/>
</g>
<polygon class="st9" points="342.4,249.56 305.15,223.41 312.29,214.69 354.28,214.69 "/>
<g>
	<circle class="st9" cx="324.96" cy="224.99" r="5.15"/>
	<path class="st2" d="M324.96,231.33c-3.5,0-6.34-2.84-6.34-6.34c0-3.5,2.84-6.34,6.34-6.34s6.34,2.84,6.34,6.34
		C331.3,228.49,328.46,231.33,324.96,231.33z M324.96,221.03c-2.18,0-3.96,1.78-3.96,3.96s1.78,3.96,3.96,3.96s3.96-1.78,3.96-3.96
		S327.15,221.03,324.96,221.03z"/>
</g>
<polygon class="st10" points="351.5,75 328.93,75 329.5,86 302.24,75 243.5,75 243.5,31 351.5,31 "/>
<rect x="253.5" y="42" class="st2" width="86" height="4"/>
<rect x="253.5" y="50" class="st2" width="86" height="4"/>
<rect x="288.5" y="62" class="st2" width="51" height="4"/>
<rect x="67.5" y="296" class="st2" width="86" height="4"/>
<rect x="67.5" y="304" class="st2" width="86" height="4"/>
<rect x="102.5" y="316" class="st2" width="51" height="4"/>
<rect x="110.5" y="270" class="st1" width="116" height="59"/>
<rect x="261.5" y="289" class="st1" width="135" height="29"/>
<g>
	<path class="st2" d="M234.57,290.46c0.56-0.91,1.16-1.2,1.89-0.94c0.58,0.21,0.92,0.76,0.93,1.52c0.01,1.33,0,2.66,0,4
		c0,1-0.33,1.59-0.99,1.78c-0.74,0.22-1.28-0.06-1.83-0.95C234.57,294.06,234.57,292.26,234.57,290.46z"/>
	<path class="st2" d="M264.73,293.16c0,6.64,0,13.27-0.01,19.91c0,0.43-0.08,0.9-0.26,1.29c-0.23,0.51-0.74,0.69-1.29,0.63
		c-0.59-0.07-1.03-0.39-1.18-1c-0.07-0.28-0.1-0.56-0.1-0.85c0-13.32,0-26.63,0-39.95c0-1.07,0.33-1.61,1.1-1.81
		c0.81-0.21,1.59,0.31,1.7,1.13c0.04,0.28,0.03,0.57,0.03,0.86C264.73,279.97,264.73,286.56,264.73,293.16z"/>
	<path class="st2" d="M267.38,293.13c0-5.43,0-10.86,0-16.29c0-0.29,0-0.58,0.04-0.86c0.09-0.64,0.6-1.11,1.24-1.16
		c0.69-0.05,1.27,0.31,1.45,0.96c0.07,0.27,0.11,0.56,0.11,0.85c0.01,11.02,0.01,22.04,0,33.07c0,1.22-0.58,1.88-1.57,1.8
		c-0.64-0.05-1.15-0.52-1.23-1.16c-0.03-0.26-0.03-0.53-0.03-0.8C267.38,304.07,267.38,298.6,267.38,293.13z"/>
	<path class="st2" d="M256.45,293.19c0-3.5-0.01-7,0-10.5c0-1.16,0.72-1.8,1.72-1.58c0.51,0.11,0.84,0.42,0.99,0.9
		c0.08,0.27,0.12,0.56,0.12,0.84c0.01,6.88,0.01,13.76,0,20.64c0,1.03-0.38,1.6-1.17,1.74c-0.8,0.15-1.53-0.36-1.63-1.17
		c-0.03-0.24-0.02-0.49-0.02-0.74C256.44,299.95,256.45,296.57,256.45,293.19z"/>
	<path class="st2" d="M275.66,293.16c0,3.24,0,6.47,0,9.71c0,0.58-0.11,1.1-0.63,1.44c-0.77,0.51-1.81,0.16-2.09-0.72
		c-0.08-0.27-0.11-0.56-0.11-0.84c-0.01-6.39-0.01-12.79,0-19.18c0-1.02,0.34-1.55,1.1-1.75c0.8-0.21,1.59,0.32,1.7,1.14
		c0.03,0.24,0.03,0.49,0.03,0.74C275.66,286.85,275.66,290.01,275.66,293.16z"/>
	<path class="st2" d="M253.79,293.22c0,2.09,0.01,4.18,0,6.27c0,0.95-0.43,1.53-1.15,1.65c-0.91,0.15-1.62-0.47-1.69-1.49
		c-0.02-0.35-0.01-0.7-0.01-1.04c0-3.83,0-7.66,0-11.5c0-0.22,0-0.45,0.04-0.67c0.15-0.84,0.7-1.3,1.47-1.27
		c0.75,0.03,1.29,0.57,1.32,1.42c0.04,1.08,0.02,2.17,0.02,3.26C253.79,290.97,253.79,292.1,253.79,293.22z"/>
	<path class="st2" d="M278.31,293.16c0-1.84-0.01-3.69,0-5.53c0.01-0.95,0.35-1.43,1.1-1.61c0.76-0.18,1.45,0.22,1.64,0.98
		c0.06,0.23,0.1,0.48,0.1,0.72c0.01,3.63,0.01,7.26,0,10.88c0,0.89-0.34,1.47-0.97,1.68c-0.89,0.3-1.8-0.26-1.84-1.22
		c-0.06-1.45-0.03-2.91-0.04-4.36C278.31,294.19,278.31,293.68,278.31,293.16z"/>
	<path class="st2" d="M248.34,293.17c0,1.37,0.01,2.75,0,4.12c0,0.64-0.23,1.24-0.87,1.41c-0.42,0.11-1.01,0.05-1.36-0.18
		c-0.31-0.2-0.56-0.74-0.57-1.13c-0.05-2.81-0.03-5.61-0.02-8.42c0-0.89,0.57-1.47,1.38-1.48c0.8-0.01,1.39,0.56,1.43,1.44
		c0.03,0.72,0.01,1.43,0.01,2.15C248.34,291.78,248.34,292.48,248.34,293.17z"/>
	<path class="st2" d="M286.6,293.17c0,1.27,0.01,2.54,0,3.81c-0.01,0.99-0.55,1.59-1.39,1.6c-0.84,0-1.42-0.62-1.43-1.58
		c-0.01-2.56-0.01-5.12,0-7.68c0.01-0.96,0.6-1.58,1.44-1.57c0.85,0.01,1.38,0.61,1.38,1.61C286.6,290.63,286.6,291.9,286.6,293.17z
		"/>
	<path class="st2" d="M242.82,293.22c0,0.82,0.04,1.64-0.01,2.45c-0.04,0.62-0.51,1.07-1.07,1.17c-0.66,0.11-1.28-0.16-1.53-0.74
		c-0.12-0.27-0.18-0.59-0.18-0.89c-0.02-1.37-0.02-2.74,0-4.11c0.01-1,0.54-1.61,1.35-1.65c0.76-0.03,1.38,0.43,1.44,1.2
		C242.86,291.51,242.82,292.37,242.82,293.22z"/>
	<path class="st2" d="M289.29,293.16c0-0.84-0.04-1.68,0.01-2.51c0.04-0.62,0.51-1.07,1.07-1.17c0.65-0.11,1.22,0.12,1.5,0.69
		c0.13,0.26,0.21,0.58,0.22,0.88c0.02,1.41,0.02,2.82,0.01,4.23c-0.01,0.65-0.23,1.22-0.88,1.49c-0.52,0.22-1.11,0.2-1.47-0.26
		c-0.27-0.34-0.43-0.82-0.49-1.26c-0.08-0.69-0.02-1.39-0.02-2.08C289.26,293.16,289.28,293.16,289.29,293.16z"/>
	<path class="st2" d="M297.53,293.16c0,0.76,0.01,1.51,0,2.27c-0.02,0.84-0.57,1.42-1.35,1.44c-0.78,0.02-1.42-0.51-1.44-1.35
		c-0.04-1.57-0.04-3.15,0-4.72c0.02-0.83,0.66-1.37,1.44-1.35c0.78,0.02,1.34,0.6,1.36,1.44
		C297.55,291.65,297.53,292.4,297.53,293.16z"/>
</g>
<circle class="st6" cx="115" cy="157.5" r="106.5"/>
<g>
	<rect x="110.13" y="75.37" class="st7" width="17.72" height="10.26"/>
	<rect x="110.13" y="65.12" class="st11" width="17.72" height="10.26"/>
	<rect x="110.13" y="95.89" class="st7" width="17.72" height="10.26"/>
	<rect x="110.13" y="85.63" class="st11" width="17.72" height="10.26"/>
	<rect x="110.13" y="116.4" class="st7" width="17.72" height="10.26"/>
	<rect x="110.13" y="106.14" class="st11" width="17.72" height="10.26"/>
	<path class="st11" d="M229.94,233.42c0,58.19-8.63,58.62-30.77,59.67c-19.58,0.93-61.47-15.3-70.86-72.73
		c-8.39-51.28-2.73-132.4,26.11-132.4S229.94,175.23,229.94,233.42z"/>
	<path class="st12" d="M154.42,87.96c-28.84,0-34.5,81.12-26.11,132.4c0.77,4.7,1.76,9.12,2.93,13.28
		c16.26,18.52,37.09,24.6,49.28,24.02c22.14-1.05,30.77-1.48,30.77-59.67c0-23.22-7.44-51.06-18.2-76.14
		C180.08,101.67,165.85,87.96,154.42,87.96z"/>
	<circle class="st13" cx="202.44" cy="190.99" r="13.05"/>
	<circle class="st13" cx="158.62" cy="235.75" r="13.05"/>
	<circle class="st13" cx="205.24" cy="255.33" r="13.05"/>
	<polygon class="st7" points="119.45,120.13 128.78,124.79 136.91,139 156.75,104.28 153.02,126.66 189.38,137.85 151.16,132.25 
		141.19,146.48 141.91,147.73 207.1,177.94 180.76,170.79 195.91,190.99 168.62,167.49 150.39,162.54 171.89,200.11 217.36,230.15 
		181.12,216.24 209.9,266.52 186.12,233.43 190.32,262.79 183.79,245.07 168.87,257.19 181.93,242.27 179.58,224.33 170.98,212.35 
		170.98,212.35 170.98,212.35 150.91,184.41 154.89,224.56 146.49,193.79 134.37,209.64 143.32,173.86 119.45,140.64 	"/>
	<path class="st2" d="M187.05,158.36c-2.6,0-4.83-1.97-5.1-4.62c-2.37-23.71-12.86-40.54-28.05-45.01c-2.72-0.8-4.27-3.65-3.47-6.37
		c0.8-2.72,3.65-4.27,6.37-3.47c19.34,5.69,32.56,25.81,35.36,53.83c0.28,2.82-1.77,5.33-4.59,5.61
		C187.39,158.35,187.22,158.36,187.05,158.36z"/>
	<path class="st11" d="M8.5,233.42c0,58.19,8.63,58.62,30.77,59.67c19.58,0.93,61.47-15.3,70.86-72.73
		c8.39-51.28,2.73-132.4-26.11-132.4S8.5,175.23,8.5,233.42z"/>
	<path class="st12" d="M84.02,87.96c28.84,0,34.5,81.12,26.11,132.4c-0.77,4.7-1.76,9.12-2.93,13.28
		c-16.26,18.52-37.09,24.6-49.28,24.02c-22.14-1.05-30.77-1.48-30.77-59.67c0-23.22,7.44-51.06,18.2-76.14
		C58.37,101.67,72.6,87.96,84.02,87.96z"/>
	<circle class="st13" cx="36.01" cy="190.99" r="13.05"/>
	<circle class="st13" cx="79.83" cy="235.75" r="13.05"/>
	<circle class="st13" cx="33.21" cy="255.33" r="13.05"/>
	<polygon class="st7" points="118.99,120.13 109.66,124.79 101.53,139 81.69,104.28 85.42,126.66 49.06,137.85 87.29,132.25 
		97.25,146.48 96.54,147.73 31.34,177.94 57.68,170.79 42.53,190.99 69.82,167.49 88.06,162.54 66.55,200.11 21.09,230.15 
		57.32,216.24 28.55,266.52 52.32,233.43 48.13,262.79 54.65,245.07 69.57,257.19 56.52,242.27 58.86,224.33 67.47,212.35 
		67.47,212.35 67.47,212.35 87.54,184.41 83.56,224.56 91.95,193.79 104.07,209.64 95.12,173.86 118.99,140.64 	"/>
	<path class="st2" d="M51.4,158.36c-0.17,0-0.34-0.01-0.52-0.03c-2.82-0.28-4.88-2.79-4.59-5.61c2.8-28.02,16.02-48.14,35.36-53.83
		c2.72-0.8,5.57,0.76,6.37,3.47c0.8,2.72-0.76,5.57-3.47,6.37c-15.19,4.47-25.67,21.29-28.05,45.01
		C56.23,156.38,54,158.36,51.4,158.36z"/>
	<rect x="113.86" y="120.13" class="st7" width="11.19" height="20.51"/>
</g>
<path class="st8" d="M303.57,272.54l4.75,7.13l10.3,3.17c0,0,19.81,2.38,23.77-4.75c3.96-7.13,60.22-174.34,60.22-174.34
	s6.34-12.68-15.06-16.64c-12.56-2.33-47.55,45.17-48.34,45.17c-0.79,0-38.83,94.3-38.83,94.3l7.92-2.38L303.57,272.54z"/>
<path class="st14" d="M218.38,159.61l9.51-15.06l12.68-19.02v-10.3l21.4-7.13l26.94,22.19v30.9l-25.36,2.38l-4.82,2.43
	c0,0-3.11,12.63-13.41,10.25v-11.09c0,0-5.55,9.51-14.26,3.17c0-2.38,7.23-15.52,7.23-15.52l-3.01-1.78
	C235.28,151.04,232.65,166.75,218.38,159.61z"/>
<path class="st6" d="M271.08,252.73l55.57-149.95c0,0,1.46-4.74,2.28-6.16c1.35-2.33,3.96-4.75,8.72-6.34
	c4.75-1.58,15.06-5.55,31.7-5.55c16.64,0,24.91,4.47,24.91,4.47s4.43,1.55,0.44,12.17c-4.75,12.68-58.64,173.54-58.64,173.54
	s-1.58,10.3-21.97,6.56C307.63,280.29,269.49,265.4,271.08,252.73z"/>
<polygon class="st15" points="328.13,102.96 392.32,102.96 335.27,270.16 275.04,246.39 "/>
<polygon class="st16" points="328.13,102.96 335.27,270.16 275.04,246.39 "/>
<circle class="st17" cx="193.82" cy="119.99" r="24.57"/>
<circle class="st6" cx="193.82" cy="119.99" r="15.85"/>
<path class="st18" d="M193.82,136.63c-9.18,0-16.64-7.47-16.64-16.64c0-9.18,7.47-16.64,16.64-16.64s16.64,7.47,16.64,16.64
	C210.46,129.17,202.99,136.63,193.82,136.63z M193.82,104.94c-8.3,0-15.06,6.75-15.06,15.06c0,8.3,6.75,15.06,15.06,15.06
	s15.06-6.75,15.06-15.06C208.87,111.69,202.12,104.94,193.82,104.94z"/>
<circle class="st19" cx="193.82" cy="119.99" r="11.89"/>
<circle class="st6" cx="193.82" cy="119.99" r="4.36"/>
<path class="st17" d="M233.04,120.39v3.96c0,0-4.75-3.96-15.05,0c-10.3,3.96,0.79-3.96,0.79-3.96H233.04z"/>
<path class="st16" d="M275.04,148.12c0,0,0.79-20.6-42-27.74c0,3.96,0,3.96,0,3.96s25.36,11.09,34.07,22.98
	C269.1,150.04,275.04,148.12,275.04,148.12z"/>
<path class="st16" d="M273.46,183.78c0,0-15.85,14.26-21.4,30.9s-4.75,39.22,22.98,46.55s31.06-13.43,31.06-13.43l10.14,7.29
	c0,0-11.89,19.81-41.21,12.68c-29.32-7.13-36.45-30.9-29.32-54.68s27.74-39.62,27.74-39.62V183.78z"/>
<polygon class="st2" points="342.4,249.56 305.15,223.41 344.77,174.27 363.79,186.56 "/>
<polyline class="st2" points="363.79,186.56 342.4,249.56 305.15,223.41 "/>
<path class="st20" d="M216,112.07c0,0,11.89-3.17,19.02-3.96s8.86-6.62,23.77-11.09c5.55-2.38,43.58,19.81,45.17,22.19
	c1.58,2.38,23.77,57.06,23.77,57.06l11.33,5.09l-24.64,30.55c0,0-32.66-9.49-54.05-44.36c-7.92-7.92-24.57-15.06-34.87-22.98
	c-10.3-7.92-13.38-13.95-7.88-20.05c5.5-6.1,15.01-0.55,15.01-0.55s17.43,10.3,26.15,17.43c18.23,10.3,18.23,7.13,18.23,7.13
	l0.79-16.64l-19.02-15.06l-22.19,4.75c0,0-16.64,0-19.02-2.38C212.83,114.45,216,112.07,216,112.07z"/>
<g>
	<path class="st21" d="M216.68,133.71c1.27,1.14,5.66,4.29,9.58,4.4c4.01,0.11,6.91-3.68,6.16-7.4c-0.56-2.79-7.01-7.41-8.49-8.34"
		/>
	<path class="st22" d="M216.26,134.13c1.79,1.59,3.96,2.87,6.19,3.74c2.59,1,5.53,1.29,7.87-0.45c2.03-1.5,3.1-4.06,2.72-6.56
		c-0.31-2-2.1-3.63-3.52-4.93c-1.64-1.49-3.42-2.9-5.29-4.08c-0.65-0.41-1.25,0.62-0.6,1.03c1.36,0.86,2.64,1.85,3.88,2.87
		c1.46,1.22,3.07,2.57,4,4.25c1.02,1.84,0.23,4.36-1.14,5.8c-1.87,1.97-4.49,1.96-6.92,1.16c-2.28-0.76-4.55-2.07-6.34-3.67
		C216.53,132.78,215.69,133.62,216.26,134.13L216.26,134.13z"/>
</g>
<polygon class="st23" points="228.29,113.26 216.4,114.05 216.4,111.67 230.66,108.5 "/>
<g>
	<path class="st24" d="M216.8,114.45c15.06-0.79,12.68-3.17,13.47-4.75"/>
	<path class="st22" d="M216.8,115.04c2.37-0.13,4.75-0.3,7.11-0.64c1.34-0.2,2.71-0.43,3.99-0.91c1.19-0.44,2.33-1.12,2.65-2.44
		c0.05-0.2,0.07-0.4,0.11-0.6c0.02-0.1,0.04-0.19,0.06-0.29c0.01-0.05,0.03-0.1,0.05-0.15c0.05-0.14-0.05,0.11,0.01-0.03
		c0.33-0.68-0.69-1.29-1.03-0.6c-0.17,0.35-0.23,0.71-0.31,1.09c-0.03,0.17-0.07,0.35-0.13,0.51c-0.06,0.18,0.03-0.02-0.06,0.15
		c-0.05,0.1-0.11,0.19-0.17,0.28c0.09-0.13-0.11,0.11-0.15,0.16c-0.14,0.14-0.17,0.15-0.26,0.21c-0.27,0.19-0.57,0.34-0.87,0.46
		c-1.12,0.47-2.34,0.69-3.53,0.89c-2.47,0.41-4.98,0.58-7.48,0.71C216.04,113.89,216.03,115.08,216.8,115.04L216.8,115.04z"/>
</g>
<g>
	<path class="st1" d="M25.12,36.93C15.3,44.06,9.28,53.63,6.79,65.46c-0.45,2.13-0.14,3.33,1.08,4.09c2.05,1.27,4.25,0.31,4.73-2.19
		c0.8-4.21,2.16-8.21,4.15-12C24.13,41.35,40,32.89,55.82,34.58c0.95,0.1,1.9,0.23,2.85,0.31c1.68,0.13,3.04-0.92,3.27-2.51
		c0.24-1.65-0.67-3.06-2.35-3.39c-5.27-1.02-10.55-0.93-15.82,0.03C36.96,30.25,30.73,32.85,25.12,36.93z"/>
	<path class="st1" d="M34.12,49.28c-6.68,4.95-10.93,11.44-12.34,19.7c-0.24,1.41,0.12,2.57,1.45,3.27
		c1.31,0.69,2.71,0.59,3.64-0.56c0.56-0.69,0.85-1.69,1.04-2.59c0.88-4.05,2.61-7.67,5.34-10.78C39,51.8,46.21,49,54.85,49.84
		c0.97,0.09,2.04,0.14,2.93-0.16c1.27-0.43,1.85-1.86,1.64-3.18c-0.25-1.58-1.31-2.26-2.74-2.5c-3.96-0.66-7.9-0.5-11.8,0.41
		C40.98,45.32,37.38,46.9,34.12,49.28z"/>
	<path class="st1" d="M42.78,61.85c-3.03,2.39-5.07,5.52-5.88,9.4c-0.41,1.95,0.54,3.5,2.27,3.84c1.83,0.36,3.16-0.56,3.65-2.53
		c1.29-5.25,5.14-7.97,10.54-7.45c2.02,0.19,3.37-0.88,3.55-2.81c0.16-1.66-1.04-3.05-2.91-3.26
		C49.95,58.56,46.25,59.53,42.78,61.85z"/>
</g>
<circle class="st25" cx="392" cy="214.5" r="20.5"/>
<circle class="st26" cx="158" cy="61.5" r="20.5"/>
<circle class="st27" cx="57" cy="319.5" r="20.5"/>
<g>
	<path class="st8" d="M369.47,97h-15.59c-0.82,0-1.48-0.66-1.48-1.48s0.66-1.48,1.48-1.48h15.59c0.82,0,1.48,0.66,1.48,1.48
		S370.29,97,369.47,97z"/>
</g>
<g class="st30">
	<path class="st6" d="M197.94,58.99c-0.26-1.93-0.67-3.85-1.04-5.77c-0.54-2.76-1.93-9.59-2.49-12.34
		c-0.39-1.93-0.89-3.82-1.95-5.51c-0.83-1.32-1.87-2.39-3.48-2.7c-0.4-0.08-0.88-0.03-1.26,0.11c-0.29,0.1-0.44,0.47-0.33,0.84
		c0.13,0.45,0.4,0.68,0.93,0.71c0.71,0.04,1.28,0.35,1.77,0.83c0.97,0.94,1.57,2.11,1.92,3.38c0.48,1.8,1.68,7.69,2.06,9.51
		c0.59,2.84,1.16,5.68,1.71,8.52c0.2,1.03,0.35,2.07,0.42,3.11c0.06,0.88-0.57,1.65-1.43,1.87c-0.44,0.11-0.92,0.11-1.37,0.2
		c-0.27,0.06-0.62,0.13-0.75,0.32c-0.18,0.27-0.24,0.65-0.24,0.99c-0.02,1.13-0.02,2.27-0.02,3.41c-0.07-0.01-0.12-0.02-0.2-0.02
		c-1.35,0-3.67,0.91-3.67,2.04c0,1.12,2.28,2.02,3.64,2.03c-0.35,1.48-1.21,2.71-2.46,3.7c-1.23,0.99-2.66,1.47-4.24,1.49
		c-0.55,0-0.95,0.41-0.94,0.92c0.01,0.49,0.36,0.8,0.93,0.81c1.05,0.02,2.06-0.18,3.04-0.56c3.43-1.33,5.65-4.58,5.65-8.26
		c0-1.71,0-3.42,0-5.15c0.16-0.03,0.3-0.07,0.45-0.09C196.85,62.98,198.25,61.22,197.94,58.99z"/>
	<path class="st6" d="M183.27,32.14c-8.08-0.19-13.27,1.21-16.35,4.4c-4.52,4.69-4.05,12.59-3.4,23.53
		c0.02,0.33,0.04,0.64,0.06,0.96c-0.02,0.12-0.01,0.25,0.02,0.37c0.34,5.41,0.67,9.44,0.33,16.65c-0.02,0.51,0.37,0.94,0.87,0.96
		c0.01,0,0.03,0,0.04,0c0.49,0,0.89-0.38,0.91-0.87c0.34-7.18,0.03-11.25-0.31-16.58l6.41-5.09l0.67,2.85
		c0.12,0.49,0.62,0.79,1.11,0.67s0.79-0.62,0.67-1.11l-0.99-4.27c0-0.01,0-0.01,0-0.02l-0.25-1.09l1.15-0.42
		c0.13-0.05,0.23-0.12,0.32-0.21c0.16-0.04,0.31-0.1,0.44-0.22l4.62-4.48c0.1-0.09,0.17-0.21,0.22-0.34l3.67-9.78
		c0.18-0.47-0.06-1-0.54-1.18c-0.47-0.18-1,0.06-1.18,0.54l-3.59,9.59l-4.47,4.34c0,0,0,0.01-0.01,0.01c-0.04,0.01-0.07,0-0.11,0.02
		l-1.92,0.71c-0.44,0.16-0.69,0.63-0.57,1.08l0.31,1.34l-6.08,4.83c-0.6-10.13-0.96-17.47,2.92-21.5c2.69-2.8,7.45-4.01,14.99-3.84
		c0.01,0,0.01,0,0.02,0c0.5,0,0.9-0.4,0.92-0.9C184.18,32.57,183.78,32.15,183.27,32.14z"/>
	<path class="st6" d="M185.47,48.41h4.48c0.51,0,0.92-0.41,0.92-0.92s-0.41-0.92-0.92-0.92h-4.48c-0.51,0-0.92,0.41-0.92,0.92
		S184.97,48.41,185.47,48.41z"/>
	<path class="st6" d="M185.47,51.67h3.44l0.13,1.22c0.05,0.47,0.45,0.82,0.91,0.82c0.03,0,0.07,0,0.1-0.01
		c0.5-0.05,0.87-0.51,0.81-1.01l-0.22-2.04c-0.05-0.47-0.44-0.82-0.91-0.82h-4.26c-0.51,0-0.92,0.41-0.92,0.92
		S184.97,51.67,185.47,51.67z"/>
</g>
<path class="st31" d="M58.72,302.27c-0.88-0.68-2.15-0.52-2.83,0.36l-2.59,3.48c-1.21-1.24-2.89-2.02-4.76-2.02H35.93
	c-3.67,0-6.65,2.98-6.65,6.65v12.61c0,3.67,2.98,6.65,6.65,6.65h12.61c3.67,0,6.65-2.98,6.65-6.65v-12.61
	c0-0.13-0.03-0.25-0.04-0.38l3.93-5.26C59.76,304.22,59.6,302.96,58.72,302.27z M52.3,323.35c0,2.08-1.69,3.77-3.77,3.77H35.93
	c-2.08,0-3.77-1.69-3.77-3.77v-12.61c0-2.08,1.69-3.77,3.77-3.77h12.61c1.23,0,2.31,0.6,3,1.51l-7.75,10.41l-4.39-5.85
	c-0.67-0.89-1.93-1.07-2.83-0.4c-0.89,0.67-1.07,1.94-0.4,2.83l5.98,7.98c0.38,0.5,0.97,0.8,1.6,0.81c0.01,0,0.01,0,0.01,0
	c0.62,0,1.21-0.29,1.6-0.78l6.95-9.29V323.35z"/>
<path class="st31" d="M387.18,247.38c4.32,0,7.83-3.51,7.83-7.83v-15.83c0-4.32-3.51-7.83-7.83-7.83h-4.32
	c-4.32,0-7.83,3.51-7.83,7.83v15.83c0,4.32,3.51,7.83,7.83,7.83h0.81v4.91h-5.47c-0.72,0-1.3,0.58-1.3,1.3v0.11
	c0,0.72,0.58,1.3,1.3,1.3h6.77h0.11h6.77c0.72,0,1.3-0.58,1.3-1.3v-0.11c0-0.72-0.58-1.3-1.3-1.3h-5.47v-4.91H387.18z
	 M382.86,245.01c-3.01,0-5.46-2.45-5.46-5.46v-15.83c0-3.01,2.45-5.46,5.46-5.46h4.32c3.01,0,5.46,2.45,5.46,5.46v15.83
	c0,3.01-2.45,5.46-5.46,5.46h-0.81v-13.09c0-0.72-0.58-1.3-1.3-1.3h-0.11c-0.72,0-1.3,0.58-1.3,1.3v13.09H382.86z"/>
<path class="st2" d="M312.5,88.31c-0.06,0.33-0.11,0.66-0.19,0.98c-0.36,1.52-1.15,2.82-2.14,4c-0.39,0.47-0.81,0.93-1.25,1.35
	c-3.04,2.94-6.1,5.88-9.15,8.81c-0.53,0.51-1.01,0.51-1.54,0c-3.06-2.95-6.12-5.9-9.18-8.85c-1.19-1.15-2.2-2.43-2.88-3.95
	c-0.77-1.71-0.86-3.47-0.37-5.25c0.7-2.54,2.42-3.99,4.96-4.53c2.21-0.46,4.24-0.07,6.06,1.29c0.75,0.55,1.47,1.14,2.23,1.73
	c0.02-0.02,0.09-0.08,0.16-0.15c1.1-1.02,2.28-1.92,3.66-2.54c2.3-1.03,5.99-0.48,7.78,1.41c0.99,1.04,1.54,2.27,1.74,3.67
	c0.03,0.23,0.07,0.47,0.1,0.7C312.5,87.43,312.5,87.87,312.5,88.31z M299,101.52c0.07-0.06,0.12-0.1,0.16-0.14
	c2.85-2.74,5.69-5.48,8.54-8.23c0.73-0.71,1.38-1.49,1.92-2.36c0.87-1.38,1.15-2.87,0.82-4.47c-0.21-1.04-0.61-1.98-1.5-2.64
	c-1.19-0.89-2.55-1.14-3.99-1.02c-1.13,0.09-2.11,0.61-2.97,1.31c-0.78,0.63-1.51,1.33-2.24,2.03c-0.43,0.42-1.04,0.42-1.47,0
	c-0.72-0.69-1.44-1.39-2.22-2.02c-1.46-1.17-3.12-1.65-4.98-1.2c-1.31,0.31-2.45,0.9-3.05,2.2c-0.74,1.6-0.82,3.24-0.12,4.87
	c0.56,1.3,1.44,2.36,2.44,3.33c2.12,2.05,4.25,4.1,6.37,6.15C297.47,100.05,298.23,100.78,299,101.52z"/>
<g class="st30">
	<path class="st6" d="M207.31,64.03c-0.62-1.31-1.43-2.49-2.48-3.5c-0.34-0.32-0.79-0.3-1.12,0.01c-0.31,0.3-0.33,0.77-0.04,1.12
		c0.17,0.2,0.34,0.39,0.52,0.58c2.86,3.23,3.49,8.06,1.56,11.9c-0.52,1.04-1.19,1.97-2,2.8c-0.48,0.5-0.34,1.13,0.26,1.39
		c0.36,0.15,0.67,0.03,1.07-0.4c2.22-2.41,3.39-5.25,3.42-8.54C208.52,67.51,208.11,65.72,207.31,64.03z"/>
	<path class="st6" d="M203.74,66.2c-0.41-1-1-1.9-1.77-2.67c-0.28-0.28-0.6-0.41-0.98-0.21c-0.32,0.16-0.55,0.51-0.44,0.86
		c0.07,0.25,0.25,0.47,0.43,0.67c1.54,1.78,2.06,3.81,1.53,6.1c-0.26,1.09-0.78,2.04-1.54,2.88c-0.17,0.19-0.34,0.4-0.41,0.64
		c-0.11,0.39,0.09,0.71,0.45,0.89c0.37,0.18,0.68,0.08,0.95-0.2c1.6-1.61,2.37-3.57,2.41-5.82
		C204.37,68.25,204.15,67.21,203.74,66.2z"/>
	<path class="st6" d="M197.9,66.36c-0.4,0.35-0.42,0.81-0.06,1.23c0.96,1.11,0.97,2.39,0.01,3.5c-0.36,0.42-0.35,0.86,0.01,1.2
		c0.35,0.33,0.84,0.29,1.2-0.1c0.73-0.79,1.1-1.73,1.15-2.78c-0.03-1.13-0.4-2.1-1.14-2.92C198.73,66.11,198.24,66.06,197.9,66.36z"
		/>
</g>
</svg>
